<svg preserveAspectRatio="none" overflow="visible" style="display: block;" width="20.8134" height="20.8134" viewBox="0 0 20.8134 20.8134" fill="none" xmlns="http://www.w3.org/2000/svg">
<g id="Layer_1" clip-path="url(#clip0_0_291)">
<path id="Vector" d="M20.7255 9.01028C20.1401 4.52999 16.5769 0.860547 12.1253 0.134248L11.0603 0.000369951H9.75997C4.59619 0.302272 0.309396 4.59069 0.00749417 9.75664C-0.0174385 10.1854 0.0259227 10.6277 0.00749417 11.0575L0.141372 12.1231C0.874718 16.5855 4.52844 20.1319 9.01416 20.727C9.2586 20.7595 9.52582 20.7514 9.75997 20.8143H11.0603C11.2944 20.7519 11.5622 20.759 11.8061 20.727C16.4099 20.1248 20.1157 16.405 20.7255 11.8044C20.758 11.5599 20.7499 11.2922 20.8127 11.058V9.75718C20.7504 9.52303 20.7575 9.25527 20.7255 9.01082V9.01028ZM17.1726 14.5909C14.0766 19.6137 6.74691 19.6078 3.64767 14.5909C0.454656 9.42221 4.01515 2.75001 10.0359 2.45136C16.3866 2.13645 20.5266 9.14904 17.1726 14.5909ZM10.0765 3.67089C4.76313 3.969 1.8265 9.98157 4.94904 14.3459C8.05858 18.6923 14.7991 17.7969 16.6983 12.8158C18.4219 8.29591 14.9124 3.39989 10.0765 3.67089ZM10.425 13.4125L7.406 10.4222L10.3952 7.40212L13.4142 10.3924L10.425 13.4125Z" fill="#6E6F72"/>
</g>
<defs>
<clipPath id="clip0_0_291">
<rect width="20.8134" height="20.8134" fill="white"/>
</clipPath>
</defs>
</svg>
