<svg preserveAspectRatio="none" overflow="visible" style="display: block;" width="24" height="24" viewBox="0 0 24 24" fill="none" xmlns="http://www.w3.org/2000/svg">
<g id="Search">
<path id="Vector" d="M21.8994 23C21.6056 23 21.3293 22.8855 21.1213 22.6775L16.7597 18.3159C15.9462 18.9645 15.042 19.4746 14.0692 19.8335C12.996 20.2294 11.8676 20.4302 10.7151 20.4302C5.35817 20.4302 0.999987 16.072 0.999987 10.7151C0.999987 5.35817 5.35817 0.999985 10.7151 0.999985C16.072 0.999985 20.4302 5.35817 20.4302 10.7151C20.4302 11.8675 20.2294 12.996 19.8335 14.0692C19.4746 15.042 18.9645 15.9461 18.3159 16.7597L22.6776 21.1213C22.8855 21.329 23 21.6054 23 21.8994C23 22.1935 22.8855 22.4698 22.6775 22.6776C22.4696 22.8855 22.1933 23 21.8994 23ZM10.7151 3.20107C6.57186 3.20107 3.20108 6.57187 3.20108 10.7151C3.20108 14.8584 6.57186 18.2291 10.7151 18.2291C14.8583 18.2291 18.2291 14.8584 18.2291 10.7151C18.2291 6.57186 14.8583 3.20107 10.7151 3.20107Z" fill="#8B8C8E"/>
</g>
</svg>
