<svg preserveAspectRatio="none" overflow="visible" style="display: block;" width="40.5599" height="40.5504" viewBox="0 0 40.5599 40.5504" fill="none" xmlns="http://www.w3.org/2000/svg">
<g id="Group 50">
<path id="Vector" d="M15.8008 26.9104V36.0704C15.8008 38.5304 17.8108 40.5504 20.2808 40.5504C22.7508 40.5504 24.7608 38.5404 24.7608 36.0704V26.9104L20.2808 22.4304L15.8008 26.9104Z" fill="url(#paint0_linear_0_370)"/>
<path id="Vector_2" d="M13.64 15.8001H4.48C2.02 15.8001 0 17.8101 0 20.2801C0 22.7501 2.01 24.7601 4.48 24.7601H13.64L18.12 20.2801L13.64 15.8001Z" fill="url(#paint1_linear_0_370)"/>
<path id="Vector_3" d="M24.7499 13.64V4.48C24.7499 2.02 22.7399 0 20.2699 0C17.7999 0 15.7899 2.01 15.7899 4.48V13.64L20.2699 18.12L24.7499 13.64Z" fill="url(#paint2_linear_0_370)"/>
<path id="Vector_4" d="M36.0799 15.8001H26.9199L22.4399 20.2801L26.9199 24.7601H36.0799C38.5399 24.7601 40.5599 22.7501 40.5599 20.2801C40.5599 17.8101 38.5499 15.8001 36.0799 15.8001Z" fill="url(#paint3_linear_0_370)"/>
</g>
<defs>
<linearGradient id="paint0_linear_0_370" x1="-9.25925" y1="12.1604" x2="24.9708" y2="35.0904" gradientUnits="userSpaceOnUse">
<stop offset="0.29" stop-color="#38AF4C"/>
<stop offset="0.96" stop-color="#A9CA38"/>
</linearGradient>
<linearGradient id="paint1_linear_0_370" x1="-7.55" y1="9.60007" x2="26.68" y2="32.5301" gradientUnits="userSpaceOnUse">
<stop offset="0.32" stop-color="#38AF4C"/>
<stop offset="0.92" stop-color="#A9CA38"/>
</linearGradient>
<linearGradient id="paint2_linear_0_370" x1="13.2199" y1="-1.33" x2="35.2399" y2="28.81" gradientUnits="userSpaceOnUse">
<stop offset="0.19" stop-color="#0098AF"/>
<stop offset="0.89" stop-color="#5FB3E4"/>
</linearGradient>
<linearGradient id="paint3_linear_0_370" x1="15.1899" y1="-2.7599" x2="37.2099" y2="27.3701" gradientUnits="userSpaceOnUse">
<stop offset="0.19" stop-color="#0098AF"/>
<stop offset="0.87" stop-color="#5FB3E4"/>
</linearGradient>
</defs>
</svg>
