<svg preserveAspectRatio="none" overflow="visible" style="display: block;" width="24" height="24" viewBox="0 0 24 24" fill="none" xmlns="http://www.w3.org/2000/svg">
<g id="Icon">
<path id="Vector" d="M22.7328 7.30066L16.5984 1.16626C16.5457 1.11355 16.4832 1.07174 16.4143 1.04321C16.3455 1.01468 16.2717 1 16.1972 1C16.1226 1 16.0489 1.01468 15.98 1.04321C15.9112 1.07174 15.8486 1.11355 15.7959 1.16626L15.7699 1.19225C15.5844 1.37672 15.4373 1.59616 15.3372 1.83787C15.237 2.07957 15.1858 2.33874 15.1865 2.60037C15.1865 2.94304 15.2736 3.27186 15.4353 3.56345L9.01671 9.07211C8.52547 8.63308 7.89847 8.39279 7.23437 8.39279C6.88242 8.39181 6.53378 8.46066 6.20863 8.59535C5.88348 8.73003 5.58827 8.92788 5.34011 9.17744L5.30163 9.21592C5.24892 9.2686 5.20711 9.33115 5.17858 9.39999C5.15006 9.46884 5.13537 9.54263 5.13537 9.61715C5.13537 9.69167 5.15006 9.76547 5.17858 9.83431C5.20711 9.90316 5.24892 9.96571 5.30163 10.0184L8.97664 13.6934L5.39743 17.2725C5.32581 17.3462 3.63165 19.092 2.51784 20.4812C1.45716 21.8039 1.2474 22.0462 1.2365 22.0587C1.14163 22.1668 1.0914 22.307 1.09599 22.4508C1.10059 22.5945 1.15966 22.7312 1.26125 22.833C1.31394 22.886 1.3766 22.9281 1.44562 22.9567C1.51464 22.9854 1.58866 23.0001 1.66339 23C1.79653 23 1.93001 22.9535 2.03738 22.8596C2.04681 22.8514 2.28357 22.6456 3.61486 21.5783C5.00391 20.4644 6.74971 18.7702 6.82904 18.6929L10.4025 15.1195L13.8807 18.5977C13.9915 18.7085 14.1367 18.7639 14.2819 18.7639C14.4271 18.7639 14.5725 18.7085 14.6831 18.5977L14.7216 18.5592C14.9712 18.311 15.169 18.0158 15.3037 17.6906C15.4384 17.3655 15.5072 17.0169 15.5063 16.6649C15.508 16.0072 15.266 15.3723 14.827 14.8826L20.3356 8.46396C20.6302 8.62754 20.9617 8.71318 21.2987 8.71276C21.8307 8.71276 22.3308 8.50561 22.7068 8.12935L22.7328 8.10336C22.7855 8.05066 22.8273 7.98809 22.8559 7.91922C22.8844 7.85036 22.8991 7.77655 22.8991 7.70201C22.8991 7.62747 22.8844 7.55366 22.8559 7.4848C22.8273 7.41593 22.7855 7.35336 22.7328 7.30066Z" fill="#6E6F72"/>
</g>
</svg>
