<svg preserveAspectRatio="none" overflow="visible" style="display: block;" width="20" height="20" viewBox="0 0 20 20" fill="none" xmlns="http://www.w3.org/2000/svg">
<g id="Question mark">
<path id="Vector" d="M10 1.66667C5.39417 1.66667 1.66667 5.39375 1.66667 10C1.66667 14.6058 5.39375 18.3333 10 18.3333C14.6058 18.3333 18.3333 14.6062 18.3333 10C18.3333 5.39417 14.6062 1.66667 10 1.66667ZM10 17.1705C6.04616 17.1705 2.82946 13.9539 2.82946 10C2.82946 6.04613 6.04616 2.82946 10 2.82946C13.9539 2.82946 17.1705 6.04613 17.1705 10C17.1705 13.9539 13.9539 17.1705 10 17.1705Z" fill="#007A8B"/>
<path id="Vector_2" d="M9.75345 12.2111C9.29274 12.2111 8.91979 12.595 8.91979 13.0557C8.91979 13.5054 9.28177 13.9003 9.75345 13.9003C10.2251 13.9003 10.598 13.5054 10.598 13.0557C10.598 12.595 10.2141 12.2111 9.75345 12.2111ZM9.89602 5.81604C8.41516 5.81604 7.73509 6.69361 7.73509 7.28593C7.73509 7.71373 8.09707 7.91119 8.39322 7.91119C8.98558 7.91119 8.74427 7.06653 9.86311 7.06653C10.4116 7.06653 10.8504 7.30787 10.8504 7.81246C10.8504 8.40478 10.2361 8.74482 9.87408 9.05195C9.55595 9.32613 9.13916 9.7759 9.13916 10.7193C9.13916 11.2896 9.29274 11.4542 9.74244 11.4542C10.2799 11.4542 10.3896 11.2129 10.3896 11.0044C10.3896 10.434 10.4006 10.105 11.0039 9.63329C11.3001 9.40295 12.2324 8.65702 12.2324 7.62594C12.2324 6.59485 11.3001 5.81604 9.89602 5.81604Z" fill="#007A8B"/>
</g>
</svg>
